<?xml version="1.0" encoding="utf-8"?>
<!-- Generator: Adobe Illustrator 27.0.0, SVG Export Plug-In . SVG Version: 6.00 Build 0)  -->
<svg version="1.1" id="Layer_1" xmlns="http://www.w3.org/2000/svg" xmlns:xlink="http://www.w3.org/1999/xlink" x="0px" y="0px"
	 viewBox="0 0 1195.2 882.36" style="enable-background:new 0 0 1195.2 882.36;" xml:space="preserve">
<style type="text/css">
	.st0{fill:none;}
	.st1{fill:#5F9EA0;}
	.st2{opacity:0.54;fill:#BFA100;}
</style>
<polygon class="st0" points="2.5,0 -0.08,882.36 1181.85,882.36 1181.11,0 "/>
<g>
	<g>
		<g>
			<g>
				<g>
					<g>
						<path class="st1" d="M819.39,424.79c2.88,0.31,5.97,0.32,8.97,0.24c3.02-0.1,6.05-0.29,9.06-0.6
							c6.02-0.61,12.02-1.53,17.94-2.75c11.85-2.41,23.44-5.81,34.76-9.79c11.32-3.99,22.36-8.63,33.15-13.68
							c10.81-5.02,21.3-10.6,31.6-16.43c20.56-11.74,40.27-24.69,59.11-38.59c18.87-13.88,36.98-28.59,54.5-43.85l0.01-0.01
							c2.09-1.82,5.42-1.77,7.44,0.12c2.02,1.89,1.96,4.89-0.13,6.71c-0.03,0.03-0.08,0.07-0.11,0.09
							c-18.19,14.96-36.97,29.35-56.49,42.89c-19.5,13.56-39.86,26.15-61.05,37.49c-10.62,5.63-21.41,11.01-32.53,15.81
							c-11.09,4.84-22.43,9.24-34.04,12.99c-11.61,3.74-23.48,6.88-35.59,9.02c-6.05,1.08-12.18,1.86-18.33,2.32
							c-3.08,0.24-6.17,0.35-9.27,0.37c-1.55,0-3.1-0.03-4.65-0.1c-1.57-0.09-3.08-0.17-4.7-0.4c-0.57-0.08-0.95-0.56-0.86-1.07
							c0.09-0.5,0.59-0.84,1.14-0.78L819.39,424.79z"/>
						<path class="st1" d="M817.36,432.73c10.3,0.84,20.74,0.68,31.09,0.19c10.36-0.56,20.68-1.59,30.91-3.07
							c10.23-1.48,20.37-3.42,30.38-5.76c10.02-2.32,19.89-5.14,29.59-8.34c4.88-1.54,9.64-3.34,14.43-5.06l7.09-2.8
							c1.18-0.48,2.37-0.92,3.53-1.42l3.49-1.51c9.35-3.93,18.37-8.43,27.25-13.12c17.65-9.56,34.33-20.51,49.81-32.67l0.02-0.01
							c2.19-1.72,5.52-1.51,7.43,0.46s1.68,4.98-0.51,6.7c-0.04,0.03-0.1,0.08-0.15,0.11c-16.45,11.98-34.05,22.65-52.53,31.83
							c-9.29,4.5-18.71,8.79-28.42,12.48l-3.62,1.42c-1.21,0.47-2.44,0.88-3.66,1.33l-7.34,2.61c-4.96,1.59-9.88,3.26-14.9,4.66
							c-10,2.92-20.14,5.44-30.39,7.46c-10.25,2.04-20.59,3.65-30.99,4.8c-10.4,1.15-20.85,1.84-31.31,2.05
							c-10.46,0.14-20.92-0.05-31.34-1.25c-0.33-0.04-0.57-0.31-0.53-0.61c0.04-0.29,0.33-0.5,0.66-0.48L817.36,432.73z"/>
						<path class="st1" d="M817.78,438.5c12.07,1.07,24.04,2.59,35.99,4.29c11.95,1.7,23.86,3.65,35.72,5.8
							c23.73,4.29,47.27,9.48,70.58,15.47c11.64,3.04,23.24,6.24,34.74,9.71c11.49,3.51,22.94,7.14,34.24,11.15l4.25,1.48l4.22,1.55
							l8.44,3.1l8.38,3.25l4.19,1.63l4.15,1.7l8.3,3.41l8.23,3.57l4.11,1.79l4.07,1.87l8.14,3.74c2.59,1.19,3.62,4.05,2.3,6.39
							c-1.32,2.34-4.49,3.27-7.08,2.08c-0.04-0.02-0.08-0.03-0.11-0.05l-0.13-0.06l-7.88-3.88l-3.94-1.94l-3.99-1.86l-7.98-3.72
							l-8.07-3.57l-4.04-1.78l-4.08-1.71l-8.16-3.42l-8.23-3.27l-4.12-1.63l-4.15-1.57c-11.04-4.26-22.26-8.14-33.52-11.91
							c-11.28-3.74-22.67-7.21-34.13-10.52c-22.94-6.54-46.17-12.31-69.65-17.19c-11.74-2.44-23.53-4.7-35.37-6.7
							c-11.84-1.99-23.74-3.83-35.66-5.19l-0.02,0c-0.6-0.07-1.03-0.56-0.95-1.11C816.66,438.83,817.19,438.45,817.78,438.5z"/>
						<path class="st1" d="M815.8,444.39c8.12,1.51,15.98,3.58,23.8,5.88c7.81,2.31,15.5,4.95,23.07,7.85
							c15.16,5.79,29.77,12.77,43.73,20.74c6.95,4.02,13.71,8.33,20.3,12.86c3.22,2.34,6.52,4.61,9.64,7.08
							c1.57,1.23,3.18,2.4,4.71,3.67l4.6,3.79c1.56,1.24,2.99,2.6,4.49,3.9l2.22,1.97c0.75,0.65,1.48,1.32,2.19,2
							c2.85,2.73,5.76,5.42,8.45,8.28c5.56,5.59,10.62,11.58,15.56,17.65c1.72,2.11,1.22,5.09-1.12,6.64
							c-2.34,1.55-5.64,1.1-7.36-1.01c-0.04-0.05-0.08-0.1-0.11-0.14l-0.1-0.13c-4.46-5.97-9.04-11.9-14.14-17.48
							c-2.46-2.85-5.14-5.54-7.76-8.28c-0.65-0.69-1.32-1.36-2.02-2.01l-2.06-1.98c-1.39-1.31-2.71-2.67-4.16-3.93l-4.27-3.83
							c-1.42-1.28-2.93-2.48-4.4-3.72c-2.91-2.51-6.01-4.82-9.04-7.22c-6.2-4.64-12.59-9.08-19.2-13.27
							c-13.27-8.3-27.29-15.7-41.95-21.95c-7.32-3.14-14.79-6.03-22.39-8.6c-7.59-2.56-15.34-4.92-23.15-6.67l-0.05-0.01
							c-0.63-0.14-1.02-0.72-0.86-1.29C814.57,444.62,815.18,444.28,815.8,444.39z"/>
					</g>
					<g>
						<g>
							<g>
								<ellipse class="st1" cx="764.96" cy="461.54" rx="7.47" ry="6.74"/>
								<ellipse class="st1" cx="735.52" cy="429.49" rx="7.47" ry="6.74"/>
								<ellipse class="st1" cx="772.43" cy="402.72" rx="7.47" ry="6.74"/>
								<ellipse class="st1" cx="806.17" cy="432.18" rx="7.47" ry="6.74"/>
								<ellipse class="st1" cx="800.45" cy="491.11" rx="7.47" ry="6.74"/>
								<ellipse class="st1" cx="823.06" cy="385.68" rx="7.47" ry="6.74"/>
								<ellipse class="st1" cx="843.88" cy="460.14" rx="7.47" ry="6.74"/>
								<g>
									<path class="st1" d="M374.18,424.79c-2.88,0.31-5.97,0.32-8.97,0.24c-3.02-0.1-6.05-0.29-9.06-0.6
										c-6.02-0.61-12.02-1.53-17.94-2.75c-11.85-2.41-23.44-5.81-34.76-9.79c-11.32-3.99-22.36-8.63-33.15-13.68
										c-10.81-5.02-21.3-10.6-31.6-16.43c-20.56-11.74-40.27-24.69-59.11-38.59c-18.87-13.88-36.98-28.59-54.5-43.85l-0.01-0.01
										c-2.09-1.82-5.42-1.77-7.44,0.12c-2.02,1.89-1.96,4.89,0.13,6.71c0.03,0.03,0.08,0.07,0.11,0.09
										c18.19,14.96,36.97,29.35,56.49,42.89c19.5,13.56,39.86,26.15,61.05,37.49c10.62,5.63,21.41,11.01,32.53,15.81
										c11.09,4.84,22.43,9.24,34.04,12.99c11.61,3.74,23.48,6.88,35.59,9.02c6.05,1.08,12.18,1.86,18.33,2.32
										c3.08,0.24,6.17,0.35,9.27,0.37c1.55,0,3.1-0.03,4.65-0.1c1.57-0.09,3.08-0.17,4.7-0.4c0.57-0.08,0.95-0.56,0.86-1.07
										c-0.09-0.5-0.59-0.84-1.14-0.78L374.18,424.79z"/>
									<path class="st1" d="M376.2,432.73c-10.3,0.84-20.74,0.68-31.09,0.19c-10.36-0.56-20.68-1.59-30.91-3.07
										c-10.23-1.48-20.37-3.42-30.38-5.76c-10.02-2.32-19.89-5.14-29.59-8.34c-4.88-1.54-9.64-3.34-14.43-5.06l-7.09-2.8
										c-1.18-0.48-2.37-0.92-3.53-1.42l-3.49-1.51c-9.35-3.93-18.37-8.43-27.25-13.12c-17.65-9.56-34.33-20.51-49.81-32.67
										l-0.02-0.01c-2.19-1.72-5.52-1.51-7.43,0.46c-1.91,1.98-1.68,4.98,0.51,6.7c0.04,0.03,0.11,0.08,0.15,0.11
										c16.45,11.98,34.05,22.65,52.53,31.83c9.29,4.5,18.71,8.79,28.42,12.48l3.62,1.42c1.21,0.47,2.44,0.88,3.66,1.33l7.34,2.61
										c4.96,1.59,9.88,3.26,14.9,4.66c10,2.92,20.14,5.44,30.39,7.46c10.25,2.04,20.59,3.65,30.99,4.8
										c10.4,1.15,20.85,1.84,31.31,2.05c10.46,0.14,20.92-0.05,31.34-1.25c0.33-0.04,0.57-0.31,0.53-0.61
										c-0.04-0.29-0.33-0.5-0.66-0.48L376.2,432.73z"/>
									<path class="st1" d="M375.78,438.5c-12.07,1.07-24.04,2.59-35.99,4.29c-11.95,1.7-23.86,3.65-35.72,5.8
										c-23.73,4.29-47.27,9.48-70.58,15.47c-11.64,3.04-23.24,6.24-34.74,9.71c-11.49,3.51-22.94,7.14-34.24,11.15l-4.25,1.48
										l-4.22,1.55l-8.44,3.1l-8.38,3.25l-4.19,1.63l-4.15,1.7l-8.3,3.41l-8.23,3.57l-4.11,1.79l-4.07,1.87l-8.14,3.74
										c-2.59,1.19-3.62,4.05-2.3,6.39c1.32,2.34,4.49,3.27,7.08,2.08c0.04-0.02,0.08-0.03,0.11-0.05l0.13-0.06l7.88-3.88
										l3.94-1.94l3.99-1.86l7.98-3.72l8.07-3.57l4.04-1.78l4.08-1.71l8.16-3.42l8.23-3.27l4.12-1.63l4.15-1.57
										c11.04-4.26,22.26-8.14,33.52-11.91c11.28-3.74,22.67-7.21,34.13-10.52c22.94-6.54,46.17-12.31,69.65-17.19
										c11.74-2.44,23.53-4.7,35.37-6.7c11.84-1.99,23.74-3.83,35.66-5.19l0.02,0c0.6-0.07,1.03-0.56,0.95-1.11
										C376.9,438.83,376.37,438.45,375.78,438.5z"/>
									<path class="st1" d="M377.77,444.39c-8.12,1.51-15.98,3.58-23.8,5.88c-7.81,2.31-15.5,4.95-23.07,7.85
										c-15.16,5.79-29.77,12.77-43.73,20.74c-6.95,4.02-13.71,8.33-20.3,12.86c-3.22,2.34-6.52,4.61-9.64,7.08
										c-1.57,1.23-3.18,2.4-4.71,3.67l-4.6,3.79c-1.56,1.24-2.99,2.6-4.49,3.9l-2.22,1.97c-0.75,0.65-1.48,1.32-2.19,2
										c-2.85,2.73-5.76,5.42-8.45,8.28c-5.56,5.59-10.62,11.58-15.56,17.65c-1.72,2.11-1.22,5.09,1.12,6.64
										c2.34,1.55,5.64,1.1,7.36-1.01c0.04-0.05,0.08-0.1,0.11-0.14l0.1-0.13c4.46-5.97,9.04-11.9,14.14-17.48
										c2.46-2.85,5.14-5.54,7.76-8.28c0.65-0.69,1.32-1.36,2.02-2.01l2.06-1.98c1.39-1.31,2.71-2.67,4.16-3.93l4.27-3.83
										c1.42-1.28,2.93-2.48,4.4-3.72c2.91-2.51,6.01-4.82,9.04-7.22c6.2-4.64,12.59-9.08,19.2-13.27
										c13.27-8.3,27.29-15.7,41.95-21.95c7.32-3.14,14.79-6.03,22.39-8.6c7.59-2.56,15.34-4.92,23.15-6.67l0.05-0.01
										c0.63-0.14,1.02-0.72,0.86-1.29C379,444.62,378.38,444.28,377.77,444.39z"/>
								</g>
								<ellipse class="st1" cx="428.61" cy="461.54" rx="7.47" ry="6.74"/>
								<ellipse class="st1" cx="458.04" cy="429.49" rx="7.47" ry="6.74"/>
								<ellipse class="st1" cx="421.14" cy="402.72" rx="7.47" ry="6.74"/>
								<ellipse class="st1" cx="387.4" cy="432.18" rx="7.47" ry="6.74"/>
								<ellipse class="st1" cx="393.11" cy="491.11" rx="7.47" ry="6.74"/>
								<ellipse class="st1" cx="370.5" cy="385.68" rx="7.47" ry="6.74"/>
								<ellipse class="st1" cx="349.68" cy="460.14" rx="7.47" ry="6.74"/>
								<path class="st1" d="M925.72,422.75c-3.29-33.64-11.18-66.4-24.34-97.26c-13.23-30.81-31.47-59.68-54.17-85.39
									c-22.67-25.74-49.72-48.29-79.98-66.93c-30.34-18.57-63.89-33.01-99.48-43.49c37.12,4.7,73.37,16.64,106.05,34.13
									c32.77,17.4,61.97,40.49,85.72,67.45c23.75,26.96,42.1,57.84,53.41,90.59C924.39,354.54,928.97,389.08,925.72,422.75z"/>
								<path class="st1" d="M677.9,143.2c-6.61-1-13.23-1.83-19.86-2.5c-6.63-0.63-13.26-1.12-19.89-1.39
									c-13.27-0.48-26.52-0.25-39.67,0.85c-26.3,2.16-52.14,7.49-76.93,15.47c-24.79,7.97-48.58,18.5-70.9,31.14
									c-5.6,3.15-11.04,6.45-16.44,9.91c-5.47,3.34-10.86,6.77-16.2,10.3c-5.34,3.53-10.62,7.15-15.89,10.83
									c-2.65,1.83-5.22,3.75-7.86,5.61l-7.87,5.7c1.91-2.51,3.92-4.97,6.03-7.35c2.07-2.41,4.29-4.71,6.52-7
									c4.46-4.59,9.23-8.94,14.19-13.11c4.94-4.18,10.15-8.12,15.47-11.91c5.36-3.7,10.96-7.23,16.6-10.61
									c22.69-13.44,47.24-24.35,72.99-32.23c25.73-7.88,52.72-12.56,79.84-13.36c13.55-0.37,27.12,0.16,40.5,1.81
									c6.69,0.8,13.34,1.82,19.9,3.15C665.01,139.82,671.51,141.38,677.9,143.2z"/>
								<path class="st1" d="M417.75,170.65c-18.56,11.13-35.96,23.91-51.82,38.15c-15.81,14.28-29.94,30.1-42.37,46.94
									c-12.48,16.83-22.86,34.93-31.18,53.77c-8.31,18.84-14.68,38.43-18.66,58.43c-7.86,40.02-6.78,81.42,3.01,121.14
									c6.69,26.42,17.33,52.01,31.49,75.89c0,0-39.7-88.38-19.86-194.73c7.15-38.34,22.73-75.38,45.49-108.54
									c11.43-16.57,24.75-32.08,39.46-46.47c14.76-14.35,31.19-27.33,48.81-38.88c35.13-23.31,75.69-39.93,118.38-49.8
									C497.07,133.36,454.9,148.42,417.75,170.65z"/>
								<path class="st1" d="M862.46,619.01c-10.16,11.77-20.77,23.09-32,33.83c-11.22,10.76-23.01,20.99-35.29,30.8
									c-6.13,4.92-12.43,9.67-18.77,14.43c-6.37,4.74-12.88,9.32-19.38,14.12c3.83-1.39,7.67-2.81,11.38-4.47
									c3.76-1.58,7.41-3.37,11.07-5.15c7.24-3.69,14.33-7.7,21.16-12.09c13.65-8.78,26.43-18.84,38.04-30
									c11.63-11.15,22.06-23.41,31.1-36.45c8.98-13.09,16.66-26.97,22.07-41.64C882.16,594.93,872.64,607.25,862.46,619.01z"/>
								<g>
									<path class="st1" d="M377.29,68.15c-18.23-7.41-37.17-13.22-56.38-17.94c-19.31-4.62-38.64-8.21-58.85-10l-5.31-0.47
										l-0.63,4.71c-1.36,10.16-1.86,19.99-2.04,29.97c-0.15,9.95,0.11,19.89,0.79,29.8c1.36,19.82,4.34,39.57,9.49,58.87
										c2.49,9.66,5.55,19.21,9.15,28.57c3.51,9.39,7.77,18.55,12.54,27.46c9.4,17.89,21.67,34.48,36.02,49.27
										c-13.34-15.56-24.28-32.64-32.64-50.65c-2.21-4.45-3.98-9.08-5.91-13.63c-1.71-4.63-3.5-9.22-4.98-13.91
										c-3.12-9.33-5.68-18.8-7.69-28.37c-4.1-19.12-6.28-38.54-6.96-57.98c-0.55-17.71,0.17-35.69,2.48-53.07
										c17.11,2.17,34.42,5.77,51.18,10.17c18.53,4.93,36.67,11.02,54.14,18.3c17.46,7.29,34.25,15.84,49.84,25.85
										c15.69,9.89,29.96,21.45,42.79,34.1l7.99,7.6l5.18-2.69c3.71-1.51,7.88-2.81,11.65-4.2c-16.87-14.28-47.61-38.16-59.4-45.4
										C413.2,84.21,395.53,75.51,377.29,68.15z"/>
								</g>
								<path class="st1" d="M943.46,58.93c-0.3-10.44-0.89-20.73-2.27-31.31l-0.66-5.06l-5.64,0.81
									c-20.05,2.88-39.12,7.51-58.08,13.16c-18.87,5.74-37.38,12.58-55.09,20.96c-17.72,8.33-34.78,17.97-50.6,29.16
									c-14.46,10.08-27.77,21.58-39.73,34.16c-105.39-31.42-181.37-3.9-181.37-3.9c2.46-0.37,4.92-0.74,7.39-1.07
									c5.85-0.77,11.71-1.43,17.59-1.99l8.82-0.73l8.62-0.54l8.64,0.09l8.85,0.25c5.9,0.24,11.8,0.58,17.69,1.03
									c11.78,0.93,23.5,2.33,35.14,4.22c23.26,3.77,46.15,9.47,68.23,17.06l5.12,1.76l3.47-3.85
									c11.98-13.3,25.44-25.62,40.45-36.34c14.89-10.84,31.09-20.28,48.03-28.5c16.95-8.22,34.65-15.27,52.82-21.2
									c16.31-5.26,33.23-9.77,50.03-12.86c2.39,18.27,3.37,37.06,3.17,55.65c-0.23,20.42-1.95,40.84-5.34,61.05
									c-3.44,20.2-8.72,40.17-16.29,59.48c-3.7,9.69-8.36,19.05-13.29,28.29c-5.04,9.21-10.93,18.02-17.32,26.58
									c6.92-8.2,13.4-16.73,19.07-25.73c5.6-9.02,10.72-18.32,15.01-27.94c8.78-19.17,14.99-39.28,19.39-59.65
									c2.16-10.2,3.94-20.47,5.25-30.79c1.24-10.33,2.11-20.69,2.59-31.08C943.64,79.73,943.74,69.33,943.46,58.93z"/>
								<g>
									<path class="st1" d="M394.51,192.32c1.87-1.06,3.74-2.14,5.58-3.28c2.73-1.69,4.93-3.6,6.64-5.69
										C402.85,186.42,398.84,189.45,394.51,192.32z"/>
								</g>
							</g>
						</g>
					</g>
				</g>
				<g>
					<g>
						<g>
							<path class="st2" d="M60.77,798.92H23.22v18.21h33.3v10.47h-33.3v26.89H11.71v-66.04h49.06V798.92z"/>
							<path class="st2" d="M98.98,788.45v66.04H87.47v-66.04H98.98z"/>
							<path class="st2" d="M183.37,849.3c-1.98,1.26-4.12,2.36-6.42,3.3c-2.3,0.94-4.76,1.68-7.41,2.22
								c-2.64,0.53-5.41,0.8-8.3,0.8c-5.16,0-9.84-0.87-14.06-2.59c-4.22-1.73-7.82-4.12-10.8-7.17c-2.99-3.05-5.3-6.65-6.93-10.8
								c-1.64-4.15-2.45-8.65-2.45-13.49c0-4.65,0.83-9.06,2.5-13.21c1.67-4.15,4.01-7.78,7.03-10.9c3.02-3.11,6.62-5.58,10.8-7.41
								c4.18-1.82,8.76-2.74,13.73-2.74c2.89,0,5.52,0.2,7.88,0.61c2.36,0.41,4.54,0.99,6.56,1.75c2.01,0.75,3.92,1.68,5.71,2.78
								c1.79,1.1,3.54,2.37,5.24,3.82l-7.36,8.77c-1.26-1.07-2.55-2.04-3.87-2.92c-1.32-0.88-2.71-1.62-4.15-2.22
								c-1.45-0.6-3.04-1.07-4.76-1.42c-1.73-0.34-3.63-0.52-5.71-0.52c-3.02,0-5.83,0.61-8.44,1.84c-2.61,1.23-4.87,2.91-6.79,5.06
								c-1.92,2.14-3.43,4.63-4.53,7.47c-1.1,2.84-1.65,5.86-1.65,9.07c0,3.4,0.53,6.56,1.6,9.45c1.07,2.9,2.59,5.4,4.58,7.52
								c1.98,2.11,4.34,3.77,7.08,4.96c2.74,1.2,5.8,1.8,9.2,1.8c3.14,0,6.09-0.46,8.82-1.38c2.74-0.92,5.11-2.13,7.12-3.65V827.7
								h-16.89V817.6h28.11v27.74C187.16,846.72,185.35,848.04,183.37,849.3z"/>
							<path class="st2" d="M228.61,826.66v27.83H217.1v-66.04h11.51v27.45h31.7v-27.45h11.51v66.04h-11.51v-27.83H228.61z"/>
							<path class="st2" d="M329.93,854.49h-11.7V799.2h-20.94v-10.76h53.59v10.76h-20.94V854.49z"/>
							<path class="st1" d="M466.17,795.34h-40v23.59h35.76v6.79h-35.76v28.78h-7.45v-66.04h47.46V795.34z"/>
							<path class="st1" d="M554.38,834.44c-1.64,4.12-3.93,7.75-6.89,10.9c-2.96,3.15-6.51,5.65-10.66,7.5
								c-4.15,1.85-8.74,2.78-13.77,2.78c-5.03,0-9.61-0.91-13.73-2.74c-4.12-1.82-7.66-4.29-10.61-7.41
								c-2.96-3.11-5.24-6.73-6.84-10.85c-1.6-4.12-2.41-8.47-2.41-13.07c0-4.59,0.82-8.95,2.45-13.07
								c1.63-4.12,3.93-7.75,6.89-10.9c2.95-3.14,6.51-5.64,10.66-7.5c4.15-1.85,8.74-2.78,13.77-2.78c5.03,0,9.61,0.91,13.73,2.74
								c4.12,1.83,7.66,4.29,10.61,7.41c2.96,3.11,5.24,6.73,6.84,10.85c1.6,4.12,2.41,8.48,2.41,13.07
								C556.83,825.97,556.01,830.32,554.38,834.44z M547.16,810.9c-1.29-3.33-3.1-6.23-5.42-8.68c-2.33-2.45-5.08-4.4-8.26-5.85
								c-3.18-1.45-6.65-2.17-10.42-2.17c-3.77,0-7.25,0.71-10.42,2.12c-3.18,1.41-5.9,3.35-8.16,5.8
								c-2.26,2.45-4.04,5.33-5.33,8.63c-1.29,3.3-1.93,6.84-1.93,10.61c0,3.77,0.64,7.33,1.93,10.66c1.29,3.33,3.1,6.23,5.42,8.68
								c2.33,2.45,5.08,4.4,8.26,5.85c3.17,1.45,6.65,2.17,10.42,2.17c3.77,0,7.25-0.71,10.43-2.12c3.17-1.42,5.9-3.35,8.16-5.8
								c2.26-2.45,4.04-5.33,5.33-8.63c1.29-3.3,1.93-6.84,1.93-10.61C549.09,817.79,548.45,814.24,547.16,810.9z"/>
							<path class="st1" d="M631.27,854.49l-19.15-25.66h-18.87v25.66h-7.45v-66.04h28.4c3.65,0,6.93,0.47,9.86,1.42
								c2.92,0.94,5.42,2.28,7.5,4.01c2.08,1.73,3.68,3.81,4.81,6.23c1.13,2.42,1.7,5.11,1.7,8.07c0,2.77-0.44,5.24-1.32,7.41
								c-0.88,2.17-2.12,4.06-3.73,5.66c-1.6,1.61-3.51,2.94-5.71,4.01c-2.2,1.07-4.59,1.83-7.17,2.26l20.28,26.96H631.27z
								 M626.16,798.79c-2.96-2.3-7.12-3.46-12.48-3.46h-20.43v26.89h20.33c2.46,0,4.73-0.32,6.81-0.95
								c2.08-0.63,3.88-1.53,5.39-2.7c1.51-1.17,2.69-2.6,3.55-4.31c0.85-1.7,1.28-3.63,1.28-5.78
								C630.61,804.33,629.12,801.1,626.16,798.79z"/>
							<path class="st1" d="M756.18,795.34h-40v23.59h35.76v6.79h-35.76v28.78h-7.45v-66.04h47.46V795.34z"/>
							<g>
								<polygon class="st1" points="791.27,847.7 791.27,824.58 827.31,824.58 827.31,817.79 783.82,817.79 783.82,854.49 
									832.03,854.49 832.03,847.7 								"/>
								<rect x="783.82" y="788.45" class="st1" width="47.74" height="6.79"/>
							</g>
							<g>
								<polygon class="st1" points="1067.7,847.7 1067.7,824.58 1103.74,824.58 1103.74,817.79 1060.24,817.79 1060.24,854.49 
									1108.45,854.49 1108.45,847.7 								"/>
								<rect x="1060.24" y="788.45" class="st1" width="47.74" height="6.79"/>
							</g>
							<path class="st1" d="M860.24,788.45h7.45v59.15h37.17v6.89h-44.62V788.45z"/>
							<path class="st1" d="M939.96,788.45v66.04h-7.45v-66.04H939.96z"/>
							<path class="st1" d="M1021.09,788.45h7.26v66.04h-5.94l-42.64-54.15v54.15h-7.26v-66.04h6.98l41.61,52.93V788.45z"/>
							<path class="st1" d="M1143.17,809.13c0.5,1.26,1.42,2.41,2.74,3.45c1.32,1.04,3.14,1.98,5.47,2.83
								c2.33,0.85,5.31,1.65,8.96,2.41c7.36,1.64,12.78,3.9,16.27,6.8c3.49,2.9,5.24,6.9,5.24,12c0,2.84-0.56,5.42-1.68,7.75
								c-1.12,2.33-2.66,4.31-4.62,5.95c-1.96,1.64-4.33,2.9-7.1,3.78c-2.77,0.88-5.79,1.32-9.06,1.32
								c-5.28,0-10.11-0.85-14.48-2.56c-4.37-1.7-8.54-4.34-12.5-7.91l4.62-5.47c3.46,3.15,6.95,5.49,10.47,7.03
								c3.52,1.54,7.58,2.31,12.17,2.31c4.47,0,8.03-1.04,10.71-3.12c2.67-2.08,4.01-4.82,4.01-8.22c0-1.57-0.25-2.97-0.76-4.2
								c-0.5-1.23-1.39-2.35-2.65-3.35c-1.26-1.01-3.01-1.92-5.25-2.74c-2.24-0.82-5.09-1.61-8.56-2.36
								c-3.78-0.82-7.08-1.76-9.88-2.83c-2.81-1.07-5.12-2.36-6.95-3.87c-1.83-1.51-3.18-3.27-4.07-5.29
								c-0.88-2.02-1.32-4.41-1.32-7.18c0-2.64,0.53-5.07,1.6-7.27c1.07-2.21,2.58-4.11,4.53-5.72c1.95-1.61,4.25-2.87,6.89-3.78
								c2.64-0.91,5.53-1.37,8.68-1.37c4.84,0,9.07,0.67,12.69,2c3.62,1.33,7.12,3.34,10.52,6.02l-4.34,5.75
								c-3.08-2.51-6.18-4.34-9.29-5.47c-3.11-1.13-6.37-1.7-9.76-1.7c-2.14,0-4.07,0.28-5.8,0.85c-1.73,0.57-3.21,1.32-4.43,2.27
								c-1.23,0.94-2.17,2.08-2.83,3.4c-0.66,1.32-0.99,2.74-0.99,4.25C1142.42,806.46,1142.67,807.88,1143.17,809.13z"/>
						</g>
					</g>
				</g>
			</g>
		</g>
		<path class="st1" d="M865.34,232.19c-2.36-1.84-4.71-3.68-7.07-5.52c-0.04-0.42-0.08-0.85-0.12-1.28
			c4.59,1.19,9.33,2.12,13.95,1.24c5.41-1.04,10.44-5.49,9.65-10.42c-0.68-4.28-6.15-7.36-10.71-6.03
			c-1.44-6.1-5.13-11.72-10.3-15.86c0.02-0.08,0.03-0.16,0.05-0.24c8.12,4.71,17.71,7.33,27.36,7.5c0.08-0.23,0.15-0.45,0.22-0.68
			c-4.9-5.64-12.18-9.57-20.02-10.76c7.67,0.46,15.34,0.92,23.01,1.39c0.09-0.31,0.19-0.62,0.28-0.92
			c-4.16-5.17-8.32-10.33-12.49-15.5c1.51,0.57,3.02,1.14,4.53,1.71c-1.26-3.8-2.51-7.6-3.77-11.4c4.2-0.5,5.54-6.65,1.86-8.54
			c1.53,0.62,3.06,1.23,4.59,1.85c-0.58-4.18-1.16-8.37-1.74-12.55c1.01,1.3,2.99,2.16,4.73,1.65c2.87-0.84,4.21-4.07,3.53-6.72
			s-2.85-4.79-5.15-6.55c6.79,2.64,7.61-0.67,14.4,1.97c-4.87-7.81-3.75-9.68-8.62-17.49c0.87,0.85,1.73,1.7,2.6,2.54
			c0.21-4.88,0.41-9.75,0.62-14.63c0.12-0.21,0.25-0.43,0.37-0.64c1.05,2.97,4.98,5.12,8.34,4.07c0.72-0.23,1.37-0.57,1.96-1
			c1.62-17.33,1.49-28.01,1.49-28.01c-52.52,25.74-84.42,48.58-117.15,96.06c16.85,16.03,37.24,39.19,65.27,60.26
			C860.89,234.55,864.39,231.85,865.34,232.19z"/>
		<path class="st1" d="M333.14,233.22c2.36-1.84,4.71-3.68,7.07-5.52c0.04-0.42,0.08-0.85,0.12-1.28
			c-4.59,1.19-9.33,2.12-13.95,1.24c-5.41-1.04-10.44-5.49-9.65-10.42c0.68-4.28,6.15-7.36,10.71-6.03
			c1.44-6.1,5.13-11.72,10.3-15.86c-0.02-0.08-0.03-0.16-0.05-0.24c-8.12,4.71-17.71,7.33-27.36,7.5c-0.08-0.23-0.15-0.45-0.22-0.68
			c4.9-5.64,12.18-9.57,20.02-10.76c-7.67,0.46-15.34,0.92-23.01,1.39c-0.09-0.31-0.19-0.62-0.28-0.92
			c4.16-5.17,8.32-10.33,12.49-15.5c-1.51,0.57-3.02,1.14-4.53,1.71c1.26-3.8,2.51-7.6,3.77-11.4c-4.2-0.5-5.54-6.65-1.86-8.54
			c-1.53,0.62-3.06,1.23-4.59,1.85c0.58-4.18,1.16-8.37,1.74-12.55c-1.01,1.3-2.99,2.16-4.73,1.65c-2.87-0.84-4.21-4.07-3.53-6.72
			s2.85-4.79,5.15-6.55c-6.79,2.64-7.61-0.67-14.4,1.97c4.87-7.81,3.75-9.68,8.62-17.49c-0.87,0.85-1.73,1.7-2.6,2.54
			c-0.21-4.88-0.41-9.75-0.62-14.63c-0.12-0.21-0.25-0.43-0.37-0.64c-1.05,2.97-4.98,5.12-8.34,4.07c-0.72-0.23-1.37-0.57-1.96-1
			c-1.62-17.33-1.49-28.01-1.49-28.01c52.52,25.74,84.42,48.58,117.15,96.06c-16.85,16.03-37.24,39.19-65.27,60.26
			C337.58,235.57,334.08,232.88,333.14,233.22z"/>
	</g>
	<path class="st1" d="M908.9,466.88c-4.79,59.02-41.83,117.61-82.01,161.12c-30.77,33.32-69.96,60.17-112.98,73.92
		c-8.59,2.74-17.4,5.14-26.39,7.24c-55.35,12.89-113.04,12.89-168.38,0c-8.99-2.09-17.8-4.49-26.39-7.24
		c-43.02-13.75-82.21-40.59-112.98-73.92c-40.17-43.51-78.4-107.44-83.19-166.46C295.14,534.86,342.7,614,397.86,662.32
		c11.55,10.12,23.74,19.62,37.07,27.23c20.68,11.82,46.37,21.59,74.06,28.91c61.8,16.34,126.9,16.34,188.7,0
		c27.69-7.32,53.38-17.09,74.06-28.91c13.33-7.62,25.52-17.12,37.07-27.23C863.98,614,910.35,540.2,908.9,466.88z"/>
</g>
</svg>
